<?xml version="1.0" encoding="UTF-8" standalone="no"?>
<!-- Created with Inkscape (http://www.inkscape.org/) -->

<svg
   xmlns:dc="http://purl.org/dc/elements/1.1/"
   xmlns:cc="http://creativecommons.org/ns#"
   xmlns:rdf="http://www.w3.org/1999/02/22-rdf-syntax-ns#"
   xmlns:svg="http://www.w3.org/2000/svg"
   xmlns="http://www.w3.org/2000/svg"
   xmlns:sodipodi="http://sodipodi.sourceforge.net/DTD/sodipodi-0.dtd"
   xmlns:inkscape="http://www.inkscape.org/namespaces/inkscape"
   width="1.8466206mm"
   height="0.88783664mm"
   viewBox="0 0 6.543144 3.1458778"
   id="svg4039"
   version="1.1"
   inkscape:version="0.91 r13725"
   sodipodi:docname="outline.svg">
  <defs
     id="defs4041" />
  <sodipodi:namedview
     id="base"
     pagecolor="#ffffff"
     bordercolor="#666666"
     borderopacity="1.0"
     inkscape:pageopacity="0.0"
     inkscape:pageshadow="2"
     inkscape:zoom="3.959798"
     inkscape:cx="-24.642362"
     inkscape:cy="-30.420555"
     inkscape:document-units="px"
     inkscape:current-layer="layer1"
     showgrid="false"
     inkscape:window-width="1280"
     inkscape:window-height="960"
     inkscape:window-x="0"
     inkscape:window-y="27"
     inkscape:window-maximized="1"
     fit-margin-top="0"
     fit-margin-left="0"
     fit-margin-right="0"
     fit-margin-bottom="0" />
  <metadata
     id="metadata4044">
    <rdf:RDF>
      <cc:Work
         rdf:about="">
        <dc:format>image/svg+xml</dc:format>
        <dc:type
           rdf:resource="http://purl.org/dc/dcmitype/StillImage" />
        <dc:title></dc:title>
      </cc:Work>
    </rdf:RDF>
  </metadata>
  <g
     inkscape:label="Calque 1"
     inkscape:groupmode="layer"
     id="layer1"
     transform="translate(-348.15716,-325.05633)">
    <path
       style="display:inline;fill:none;stroke:#348eb8;stroke-width:0.04828634;stroke-linecap:butt;stroke-linejoin:miter;stroke-miterlimit:4;stroke-opacity:1"
       d="m 350.08162,325.08075 c -0.0514,0.12457 0.10794,0.45247 0.27022,0.5714 0.17825,0.12845 0.41551,0.20779 0.61866,0.24294 9.4e-4,5.6e-4 0.002,9.4e-4 0.003,0.002 0.104,0.0246 0.24072,0.0395 0.36819,0.0754 0.12746,0.036 0.26442,0.0615 0.32652,0.18226 0.009,0.0182 0.01,0.0993 -0.005,0.11293 -0.27568,0.14102 -0.49775,0.34356 -0.67721,0.62686 -0.0792,-0.0289 -0.18651,-0.14371 -0.25379,-0.2219 -0.0673,-0.0782 -0.1311,-0.14969 -0.21276,-0.17956 -0.003,-0.001 -0.005,-0.003 -0.008,-0.005 -0.34705,-0.21582 -0.75302,-0.24534 -1.16793,-0.27311 -0.39276,-0.0263 -0.79257,-0.0556 -1.15284,-0.24898 -0.0314,0.18195 0.0174,0.34459 0.1177,0.4889 0.11089,0.1596 0.27946,0.29433 0.44665,0.39534 0.003,0.002 0.005,0.004 0.008,0.006 0.36522,0.33269 0.54298,0.81983 0.6152,1.29058 0.26156,0.0749 0.50279,0.008 0.72928,-0.11964 0.23393,-0.13133 0.44806,-0.33301 0.63375,-0.51756 0.0933,-0.0839 0.19691,-0.16542 0.29576,-0.21427 0.10732,-0.0772 0.20131,-0.0421 0.35762,0.0211 0.16682,0.0294 0.41551,0.0224 0.59208,0.0181 -0.0377,0.12546 -0.14918,0.42702 -0.17712,0.56133 0.24479,-0.0972 0.51006,-0.16265 0.75296,-0.2535 0.27023,-0.10107 0.50501,-0.20951 0.63684,-0.485 0.004,-0.007 0.0256,-0.0136 0.0324,-0.0176 0.15043,-0.0909 0.32401,-0.12797 0.48209,-0.16582 0.15809,-0.0378 0.30492,-0.0825 0.42251,-0.19163 0.002,-0.002 0.005,-0.004 0.008,-0.006 0.19798,-0.11586 0.40006,-0.26513 0.52085,-0.41063 -0.11116,-0.0805 -0.23843,-0.10125 -0.3775,-0.12807 -0.14719,-0.0284 -0.23376,-0.0972 -0.42703,-0.26557 -0.26722,-0.20152 -0.5377,-0.18524 -0.72783,-0.10412 -0.28778,-0.5501 -0.49885,-0.57705 -0.90593,-0.57522 -0.74071,0.0228 -1.71765,-0.10614 -2.14476,-0.21195 z"
       id="path4402"
       inkscape:connector-curvature="0"
       sodipodi:nodetypes="ccccscccsccscscccscccccsccscccscccc" />
  </g>
</svg>
