<?xml version="1.0" encoding="UTF-8" standalone="no"?>
<!-- Created with Inkscape (http://www.inkscape.org/) -->

<svg
   xmlns:dc="http://purl.org/dc/elements/1.1/"
   xmlns:cc="http://creativecommons.org/ns#"
   xmlns:rdf="http://www.w3.org/1999/02/22-rdf-syntax-ns#"
   xmlns:svg="http://www.w3.org/2000/svg"
   xmlns="http://www.w3.org/2000/svg"
   xmlns:sodipodi="http://sodipodi.sourceforge.net/DTD/sodipodi-0.dtd"
   xmlns:inkscape="http://www.inkscape.org/namespaces/inkscape"
   width="210mm"
   height="297mm"
   viewBox="0 0 744.09448819 1052.3622047"
   id="svg4039"
   version="1.1"
   inkscape:version="0.91 r13725"
   sodipodi:docname="outline.svg">
  <defs
     id="defs4041" />
  <sodipodi:namedview
     id="base"
     pagecolor="#ffffff"
     bordercolor="#666666"
     borderopacity="1.0"
     inkscape:pageopacity="0.0"
     inkscape:pageshadow="2"
     inkscape:zoom="3.959798"
     inkscape:cx="326.74908"
     inkscape:cy="718.47361"
     inkscape:document-units="px"
     inkscape:current-layer="layer1"
     showgrid="false"
     inkscape:window-width="1280"
     inkscape:window-height="931"
     inkscape:window-x="0"
     inkscape:window-y="31"
     inkscape:window-maximized="1" />
  <metadata
     id="metadata4044">
    <rdf:RDF>
      <cc:Work
         rdf:about="">
        <dc:format>image/svg+xml</dc:format>
        <dc:type
           rdf:resource="http://purl.org/dc/dcmitype/StillImage" />
        <dc:title></dc:title>
      </cc:Work>
    </rdf:RDF>
  </metadata>
  <g
     inkscape:label="Calque 1"
     inkscape:groupmode="layer"
     id="layer1">
    <path
       style="display:inline;fill:none;stroke:#348eb8;stroke-width:1;stroke-linecap:butt;stroke-linejoin:miter;stroke-miterlimit:4;stroke-opacity:1"
       d="m 323.53265,294.62031 c -1.06517,2.57983 2.23535,9.37037 5.59613,11.83344 3.69166,2.66013 8.60529,4.30339 12.8125,5.03125 0.0212,0.01 0.0421,0.0201 0.0625,0.0312 2.15383,0.50957 4.98519,0.81784 7.625,1.5625 2.63981,0.74466 5.47609,1.27441 6.76225,3.77455 0.18795,0.377 0.2063,2.05652 -0.10637,2.3388 -5.70927,2.92038 -10.30837,7.11505 -14.02498,12.98218 -1.63972,-0.59826 -3.8626,-2.97625 -5.2559,-4.59553 -1.3933,-1.61929 -2.71497,-3.10013 -4.40625,-3.71875 -0.0549,-0.0263 -0.10725,-0.0577 -0.15625,-0.0937 -7.18723,-4.46965 -15.5949,-5.08101 -24.1875,-5.65625 -8.1339,-0.54454 -16.41392,-1.15111 -23.875,-5.15625 -0.65095,3.76823 0.36104,7.13637 2.4375,10.125 2.29653,3.30537 5.78746,6.09552 9.25,8.1875 0.0562,0.0362 0.10865,0.0781 0.15625,0.125 7.56363,6.88992 11.24487,16.97857 12.74057,26.7276 5.4169,1.55127 10.4127,0.15574 15.10318,-2.4776 4.84474,-2.71995 9.27937,-6.89657 13.125,-10.71875 1.93139,-1.73767 4.07791,-3.42578 6.125,-4.4375 2.22264,-1.59923 4.1691,-0.87078 7.40625,0.4375 3.45476,0.60802 8.60517,0.46371 12.26181,0.375 -0.78031,2.59807 -3.08948,8.84336 -3.66806,11.625 5.06956,-2.01349 10.56318,-3.36846 15.59375,-5.25 5.59621,-2.0931 10.45856,-4.33899 13.18867,-10.04422 0.0832,-0.14107 0.52993,-0.28236 0.671,-0.36557 3.1154,-1.88333 6.71019,-2.65025 9.98408,-3.43396 3.27389,-0.78371 6.31482,-1.7084 8.75,-3.96875 0.0476,-0.0469 0.10006,-0.0888 0.15625,-0.125 4.1001,-2.39938 8.28521,-5.49075 10.78681,-8.50397 -2.30217,-1.66713 -4.93785,-2.09696 -7.81806,-2.65228 -3.04817,-0.58771 -4.84123,-2.01247 -8.84375,-5.5 -5.5341,-4.17351 -11.1355,-3.83621 -15.0731,-2.15623 -5.96001,-11.39254 -10.33108,-11.95067 -18.7618,-11.91276 -15.33985,0.47148 -35.57195,-2.19813 -44.41748,-4.38945 z"
       id="path4402"
       inkscape:connector-curvature="0"
       sodipodi:nodetypes="ccccscccsccscscccscccccsccscccscccc" />
  </g>
</svg>
